1.8Hz3min_grf.mot
version=1
nRows=10
nColumns 19
inDegrees=yes
endheader
time	1_ground_force_vx	1_ground_force_vy	1_ground_force_vz	1_ground_force_px	1_ground_force_py	1_ground_force_pz	1_ground_torque_x	1_ground_torque_y	1_ground_torque_z	2_ground_force_vx	2_ground_force_vy	2_ground_force_vz	2_ground_force_px	2_ground_force_py	2_ground_force_pz	2_ground_torque_x	2_ground_torque_y	2_ground_torque_z
            1.253500	           -7.975277	          880.747565	         -115.569910	           -0.282579	            0.006000	           -0.355432	           -0.011696	            1.291646	           -0.169487	          -31.610119	          815.777161	          128.739209	           -0.279636	            0.005696	           -0.759952	            0.010037	           -0.259020	           -0.040876
            1.254000	           -8.249077	          878.222478	         -115.259053	           -0.282088	            0.005999	           -0.355278	           -0.011013	            1.172446	           -0.153873	          -31.971708	          812.093419	          128.538515	           -0.279149	            0.005698	           -0.760015	            0.006429	           -0.163307	           -0.025848
            1.254500	           -8.246532	          874.253426	         -114.542364	           -0.281821	            0.006000	           -0.355398	           -0.010677	            1.131869	           -0.148294	          -31.870841	          810.069321	          128.202743	           -0.278571	            0.005700	           -0.760040	            0.005875	           -0.149318	           -0.023631
            1.255000	           -8.290158	          872.087083	         -113.817831	           -0.281294	            0.005999	           -0.355203	           -0.010946	            1.151438	           -0.150276	          -32.001063	          807.124951	          127.488376	           -0.278095	            0.005703	           -0.760216	            0.004315	           -0.108827	           -0.017190
            1.255500	           -8.562785	          868.118297	         -113.146311	           -0.281076	            0.006000	           -0.355261	           -0.011141	            1.129538	           -0.147218	          -32.039399	          804.731896	          127.198285	           -0.277464	            0.005705	           -0.760279	            0.003267	           -0.082048	           -0.012969
            1.256000	           -8.469757	          864.511822	         -112.886870	           -0.280639	            0.006000	           -0.355254	           -0.011073	            1.130213	           -0.147582	          -32.356794	          801.785008	          127.000200	           -0.276962	            0.005708	           -0.760429	            0.005383	           -0.133385	           -0.021128
            1.256500	           -8.558445	          861.803524	         -111.889399	           -0.280259	            0.005999	           -0.355171	           -0.010504	            1.057673	           -0.137320	          -32.486253	          798.655599	          126.519808	           -0.276591	            0.005709	           -0.760429	            0.001139	           -0.028012	           -0.004438
            1.257000	           -8.694000	          859.096865	         -111.304529	           -0.280013	            0.005999	           -0.355151	           -0.009715	            0.960023	           -0.124380	          -32.616413	          795.710727	          125.946218	           -0.275907	            0.005712	           -0.760537	            0.000259	           -0.006313	           -0.000999
            1.257500	           -8.509662	          855.671294	         -111.182099	           -0.279332	            0.006000	           -0.355173	           -0.009622	            0.967540	           -0.125718	          -32.887626	          792.948210	          125.748769	           -0.275266	            0.005715	           -0.760760	           -0.002745	            0.066192	            0.010497
            1.258000	           -8.644321	          852.422614	         -110.278552	           -0.279125	            0.005999	           -0.354981	           -0.009302	            0.917297	           -0.118671	          -33.063330	          789.635054	          125.126949	           -0.274782	            0.005717	           -0.760835	           -0.003655	            0.087280	            0.013830
